<?xml version="1.0" encoding="utf-8"?>
<!-- Generator: Adobe Illustrator 22.1.0, SVG Export Plug-In . SVG Version: 6.00 Build 0)  -->
<svg version="1.1" id="back" xmlns="http://www.w3.org/2000/svg" xmlns:xlink="http://www.w3.org/1999/xlink" x="0px" y="0px"
	 viewBox="0 0 122.5 29.4" style="enable-background:new 0 0 122.5 29.4;" xml:space="preserve">
<style type="text/css">
	.st0{fill:#323E48;}
</style>
<g>
	<path class="st0" d="M17.9,26.2c0,2-0.8,3-2.4,3c-1.6,0-2.4-1-2.4-3v-8.9c0-3.1-1.3-4.7-3.9-4.7c-1.4,0-2.5,0.5-3.2,1.4
		c-0.7,0.8-1,1.9-1,3.3v8.9c0,2-0.8,3-2.5,3c-1.6,0-2.4-1-2.4-3V3.1C0,1,0.8,0,2.4,0c1.6,0,2.5,1,2.5,3.1c0,5.1,0,7.7,0,7.8
		C6.2,9.4,8,8.6,10.4,8.6c2.4,0,4.3,0.7,5.6,2.1c1.3,1.3,1.9,3.2,1.9,5.5V26.2z"/>
	<path class="st0" d="M38.3,17.8c0,0.8-0.3,1.4-0.8,1.9c-0.6,0.5-1.3,0.7-2.1,0.7H23.7c0.1,1.5,0.6,2.6,1.6,3.5s2.3,1.3,3.8,1.3
		c1.3,0,2.7-0.4,4.3-1.2s2.4-1.2,2.6-1.2c1.3,0,1.9,0.6,1.9,1.9c0,0.4-0.2,0.8-0.6,1.3c-0.8,1-2.1,1.8-3.8,2.4
		c-1.5,0.5-3,0.8-4.6,0.8c-3,0-5.5-1-7.5-3.1c-1.8-2-2.7-4.4-2.7-7.4c0-2.9,0.9-5.3,2.8-7.4c1.9-2,4.3-3,7.2-3
		c2.6,0,4.8,0.9,6.7,2.8C37.4,13.1,38.3,15.3,38.3,17.8z M33.5,17.2c-0.1-1.4-0.5-2.5-1.3-3.5c-0.8-0.9-2-1.4-3.4-1.4
		s-2.6,0.5-3.6,1.4c-1,0.9-1.5,2.1-1.6,3.5H33.5z"/>
	<path class="st0" d="M44.2,26.1c0,2-0.8,3.1-2.4,3.1s-2.4-1-2.4-3.1V3.1c0-2,0.8-3.1,2.4-3.1s2.4,1,2.4,3V26.1z"/>
	<path class="st0" d="M75.8,26.3c0,2-0.8,3-2.4,3c-1.6,0-2.4-1-2.4-3v-9.1c0-3-1.2-4.6-3.5-4.6c-1.3,0-2.3,0.4-3,1.3
		c-0.6,0.8-0.9,1.9-0.9,3.2v9.2c0,2-0.8,3-2.4,3c-1.6,0-2.4-1-2.4-3v-9.1c0-3.1-1.2-4.6-3.6-4.6c-2.6,0-3.8,1.5-3.8,4.4v9.3
		c0,2-0.8,3-2.4,3c-1.6,0-2.4-1-2.4-3V11.7c0-2,0.8-3,2.4-3c1.2,0,2,0.6,2.4,1.9c1.3-1.4,3.1-2,5.2-2c2.5,0,4.5,1,5.9,3.1
		c1.7-2,3.8-3.1,6.4-3.1c2.3,0,4,0.7,5.3,2.2c1.2,1.4,1.8,3.2,1.8,5.3V26.3z"/>
	<path class="st0" d="M83.2,3.7c0,0.8-0.3,1.4-0.8,2c-0.6,0.5-1.2,0.8-2,0.8s-1.5-0.3-2-0.8c-0.6-0.5-0.8-1.2-0.8-2
		c0-0.8,0.3-1.4,0.8-1.9c0.6-0.5,1.2-0.8,2-0.8c0.8,0,1.4,0.3,2,0.8C82.9,2.3,83.2,3,83.2,3.7z M82.7,26.2c0,2-0.8,3-2.4,3
		s-2.4-1-2.4-3V11.6c0-2,0.8-3,2.4-3s2.4,1,2.4,3V26.2z"/>
	<path class="st0" d="M103.6,19c0,2.9-0.9,5.4-2.6,7.3c-1.8,2.1-4.2,3.1-7.2,3.1c-2.9,0-5.4-1-7.2-3.1c-1.8-2-2.7-4.4-2.7-7.3
		c0-2.9,0.9-5.4,2.6-7.3c1.9-2.1,4.3-3.2,7.3-3.2c3,0,5.4,1,7.3,3.1C102.7,13.5,103.6,16,103.6,19z M93.8,12.7c-1.7,0-3,0.7-3.9,2
		c-0.7,1.1-1.1,2.6-1.1,4.3c0,1.7,0.4,3.1,1.2,4.2c0.9,1.3,2.2,2,3.8,2c1.7,0,3-0.7,3.8-2c0.7-1.1,1.1-2.5,1.1-4.2
		c0-1.7-0.4-3.1-1.1-4.2C96.7,13.4,95.4,12.7,93.8,12.7z"/>
	<path class="st0" d="M122.5,26.2c0,2-0.8,3-2.5,3c-1.6,0-2.4-1-2.4-3v-9c0-3.1-1.4-4.6-4.1-4.6c-2.7,0-4,1.5-4,4.6v8.9
		c0,2-0.8,3-2.4,3c-1.7,0-2.5-1-2.5-3V11.8c0-2,0.8-3,2.4-3c0.9,0,1.5,0.3,1.9,1c0.1,0.3,0.3,0.7,0.4,1.1l0,0.1
		c1.3-1.5,3.2-2.2,5.6-2.2c2.4,0,4.3,0.7,5.6,2.1c1.3,1.4,1.9,3.3,1.9,5.6V26.2z"/>
</g>
</svg>
